<svg width="15" height="15" viewBox="0 0 15 15" fill="none" xmlns="http://www.w3.org/2000/svg">
<path d="M9.44977 7.50037L14.066 2.88409C14.6043 2.3458 14.6043 1.47305 14.066 0.934829C13.5278 0.396534 12.655 0.396534 12.1168 0.934829L7.50051 5.5511L2.88423 0.934758C2.34594 0.396463 1.4732 0.396463 0.934971 0.934758C0.396676 1.47305 0.396676 2.3458 0.934971 2.88402L5.55125 7.5003L0.934971 12.1166C0.396676 12.6549 0.396676 13.5276 0.934971 14.0658C1.20412 14.335 1.55686 14.4696 1.9096 14.4696C2.26234 14.4696 2.61509 14.335 2.88423 14.0658L7.50051 9.44956L12.1168 14.0658C12.3859 14.335 12.7387 14.4696 13.0914 14.4696C13.4442 14.4696 13.7969 14.335 14.066 14.0658C14.6043 13.5275 14.6043 12.6548 14.066 12.1166L9.44977 7.50037Z" fill="#DD636E"/>
<path d="M13.0908 15.0008C12.5802 15.0008 12.1005 14.8022 11.7399 14.4416L7.50015 10.2012L3.25981 14.4416C2.89919 14.8022 2.41939 15.0008 1.90889 15.0008C1.39789 15.0008 0.918167 14.802 0.558192 14.4411C-0.186005 13.6969 -0.186006 12.4852 0.558617 11.7405L4.7984 7.50017L3.37346 6.07524C3.16579 5.86756 3.16579 5.53085 3.37346 5.32324C3.58114 5.11557 3.91785 5.11557 4.12546 5.32324L5.92632 7.1241C6.134 7.33178 6.134 7.66842 5.92632 7.8761L1.31061 12.4925C0.980561 12.8226 0.980561 13.3596 1.31061 13.6896C1.47007 13.8495 1.68236 13.9373 1.90882 13.9373C2.13528 13.9373 2.34799 13.8493 2.50774 13.6896L7.12409 9.07322C7.22378 8.97346 7.35906 8.91745 7.50008 8.91745C7.64111 8.91745 7.77639 8.97346 7.87608 9.07322L12.4918 13.6896C12.6515 13.8493 12.8642 13.9373 13.0906 13.9373C13.3171 13.9373 13.5298 13.8493 13.6896 13.6896C14.0195 13.3596 14.0195 12.8226 13.6896 12.4925L9.07313 7.8761C8.86546 7.66842 8.86546 7.33171 9.07313 7.1241L13.6896 2.50769C14.0196 2.17763 14.0195 1.64061 13.6896 1.31063C13.3594 0.981004 12.8218 0.980933 12.4915 1.31092L7.87608 5.92705C7.77639 6.02681 7.64111 6.08282 7.50008 6.08282C7.35906 6.08282 7.22377 6.02681 7.12401 5.92705L2.5076 1.31063C2.17754 0.98072 1.64052 0.980579 1.31054 1.31063C0.980561 1.64061 0.98049 2.17763 1.31054 2.50769L2.62586 3.82371C2.83347 4.03146 2.8334 4.36811 2.62565 4.57571C2.4179 4.78325 2.08126 4.78324 1.87365 4.5755L0.558405 3.25954C-0.186147 2.51499 -0.186146 1.30326 0.558476 0.558493C1.30324 -0.1862 2.51497 -0.186129 3.25959 0.558493L7.49994 4.79891L11.7397 0.558565C12.4847 -0.18549 13.6965 -0.18549 14.4413 0.558281C15.1862 1.30326 15.1862 2.51499 14.4415 3.25961L10.2011 7.50003L14.4415 11.7405C15.1862 12.4851 15.1862 13.6969 14.4415 14.4416C14.081 14.8022 13.6013 15.0008 13.0908 15.0008V15.0008Z" fill="black"/>
</svg>
