<svg width="17" height="16" viewBox="0 0 17 16" fill="none" xmlns="http://www.w3.org/2000/svg">
<path d="M7.92337 15.4359C7.45981 15.4359 7.01692 15.2281 6.72056 14.8644L0.913977 7.7417C0.372333 7.0773 0.471848 6.09962 1.13625 5.55797C1.80065 5.0164 2.77832 5.11584 3.31997 5.78024L7.63499 11.0733L12.6626 1.39986C13.0579 0.639257 13.995 0.343124 14.7556 0.738394C15.5162 1.13374 15.8124 2.0708 15.417 2.8314L9.30076 14.5995C9.05984 15.063 8.60184 15.3743 8.08208 15.4277C8.02905 15.4332 7.97602 15.4359 7.92337 15.4359V15.4359Z" fill="#80CB8E"/>
<path d="M7.92274 16C7.28399 16 6.68624 15.7161 6.28269 15.2209L0.476257 8.0983C0.119123 7.66015 -0.04613 7.10918 0.0111107 6.54685C0.0683515 5.98453 0.341167 5.47809 0.779311 5.12088C1.68365 4.38359 3.01937 4.51959 3.75665 5.424L7.5295 10.052L12.1614 1.14005C12.6995 0.104678 13.9796 -0.299919 15.015 0.238189C15.5166 0.498894 15.8867 0.939294 16.0569 1.4783C16.2273 2.01732 16.1775 2.5904 15.9168 3.09195L9.80063 14.8598C9.4711 15.4939 8.84995 15.916 8.13907 15.9889C8.06776 15.9963 7.99488 16 7.92274 16V16ZM2.11555 5.77362C1.89599 5.77362 1.67523 5.8462 1.49222 5.99536C1.28771 6.16212 1.16029 6.39853 1.13359 6.66104C1.10688 6.92355 1.18398 7.18079 1.35074 7.38538L7.15725 14.5081C7.34567 14.7392 7.62473 14.8717 7.92282 14.8717C7.95644 14.8717 7.99036 14.87 8.02368 14.8665C8.35577 14.8325 8.64574 14.6354 8.79963 14.3393L14.9158 2.57152C15.0375 2.33737 15.0608 2.06982 14.9813 1.81821C14.9017 1.56661 14.729 1.36097 14.4948 1.23926C14.0115 0.988111 13.4138 1.17691 13.1626 1.66033L8.13501 11.3336C8.04745 11.5021 7.881 11.6153 7.69205 11.6347C7.50325 11.6541 7.31716 11.5771 7.19719 11.4299L2.88225 6.13692C2.68721 5.89773 2.40243 5.77362 2.11555 5.77362V5.77362Z" fill="black"/>
</svg>
